# xmcd CD database file
#
# Track frame offsets:
#	150
#	14530
#	28772
#	43455
#	57730
#	71702
#	85302
#	97672
#	112760
#	125600
#	139252
#	152997
#	165870
#	181182
#	194612
#	206817
#	218297
#	230750
#	244087
#	259027
#
# Disc length: 3629 seconds
#
# Revision: 4
# Processed by: cddbd v1.5.1PL0 Copyright (c) Steve Scherf et al.
# Submitted via: CDex 1.51
#
DISCID=200e2b14
DTITLE=Various Artist - Living The Blues - BLUES ROOTS: 1930-1944
DYEAR=1999
DGENRE=Blues
TTITLE0=Kokomo Arnold - Milk Cow Blues
TTITLE1=Son House - My Black Mama-Part I
TTITLE2=Memphis Jug Band - He's In The Jailhouse Now
TTITLE3=Huddie Ledbetter (Lead Belly) - Midnight Special
TTITLE4=Blind Gary (Rev. Gary Davis) - Cross And Evil Woman Blues
TTITLE5=Skip James - Devil Got My Woman
TTITLE6=Robert Johnson - Cross Road Blues
TTITLE7=Memphis Minnie - If You See My Rooster (Please Run Him Home)
TTITLE8=Roosevelt Sykes - The Honey Dripper
TTITLE9=Bukka White - Shake 'Em On Down
TTITLE10=Sonny Boy Williamson - Good Morning, School Girl
TTITLE11=Joe Turner - Roll 'Em Pete
TTITLE12=Big Joe Williams - Baby, Please Don't Go
TTITLE13=Blind Boy Fuller - Step It Up And Go
TTITLE14=Jazz Gillum - Key To The Highway
TTITLE15=Big Bill (Big Bill Broonzy) - All By Myself
TTITLE16=Champion Jack Dupree - Junker Blues
TTITLE17=Big Maceo - Worried Life Blues
TTITLE18=Lonnie Johnson - He's A Jelly-Roll Baker
TTITLE19=Arthur "Big Boy" Crudup - Rock Me Mama
EXTD=YEAR: 1999
EXTT0=
EXTT1=
EXTT2=
EXTT3=
EXTT4=
EXTT5=
EXTT6=
EXTT7=
EXTT8=
EXTT9=
EXTT10=
EXTT11=
EXTT12=
EXTT13=
EXTT14=
EXTT15=
EXTT16=
EXTT17=
EXTT18=
EXTT19=
PLAYORDER=
